<?xml version="1.0" encoding="UTF-8" standalone="no"?>
<svg
   xmlns:dc="http://purl.org/dc/elements/1.1/"
   xmlns:cc="http://creativecommons.org/ns#"
   xmlns:rdf="http://www.w3.org/1999/02/22-rdf-syntax-ns#"
   xmlns:svg="http://www.w3.org/2000/svg"
   xmlns="http://www.w3.org/2000/svg"
   xmlns:sodipodi="http://sodipodi.sourceforge.net/DTD/sodipodi-0.dtd"
   xmlns:inkscape="http://www.inkscape.org/namespaces/inkscape"
   version="1.1"
   id="svg2"
   xml:space="preserve"
   width="100"
   height="78.666664"
   viewBox="0 0 100 78.666664"
   sodipodi:docname="ca-seeklogo.com.eps"
   inkscape:version="1.0.1 (0767f8302a, 2020-10-17)"><metadata
     id="metadata8"><rdf:RDF><cc:Work
         rdf:about=""><dc:format>image/svg+xml</dc:format><dc:type
           rdf:resource="http://purl.org/dc/dcmitype/StillImage" /><dc:title></dc:title></cc:Work></rdf:RDF></metadata><defs
     id="defs6" />
     <sodipodi:namedview
     pagecolor="#ffffff"
     bordercolor="#666666"
     borderopacity="1"
     objecttolerance="10"
     gridtolerance="10"
     guidetolerance="10"
     inkscape:pageopacity="0"
     inkscape:pageshadow="2"
     inkscape:window-width="1294"
     inkscape:window-height="704"
     id="namedview4"
     showgrid="false"
     inkscape:zoom="5.923729"
     inkscape:cx="50"
     inkscape:cy="46.085835"
     inkscape:window-x="72"
     inkscape:window-y="27"
     inkscape:window-maximized="1"
     inkscape:current-layer="g10" /><g
     id="g10"
     inkscape:groupmode="layer"
     inkscape:label="ink_ext_XXXXXX"
     transform="matrix(1.3333333,0,0,-1.3333333,0,78.666667)"><g
       id="g12"
       transform="scale(0.1)"><path
         d="m 414.039,353.352 90.598,-184.821 7.367,-5.965 2.262,2.922 -6.84,5.313 -90.071,184.172 -3.316,-1.621"
         style="fill:#1e6085;fill-opacity:1;fill-rule:nonzero;stroke:none"
         id="path14" /><path
         d="m 348.078,378.43 h -62.492 c 0,0 -48.109,-1.926 -71.414,-43.907 -23.285,-41.984 -13.586,-100.148 26.406,-124.785 39.961,-24.66 60.145,-20.422 72.57,1.926 12.407,22.336 88.883,174.082 88.883,174.082 0,0 11.637,28.883 31.817,11.938 L 542.527,177.387 c 0,0 4.668,-7.707 -5.422,-7.707 -10.089,0 -20.562,-1.926 -26.011,9.238 -5.434,11.168 -89.653,183.715 -89.653,183.715 0,0 -5.058,4.246 -8.543,-3.074 -3.5,-7.321 -82.671,-169.473 -82.671,-169.473 0,0 -13.579,-20.02 -34.157,-21.188 -23.027,-1.285 -104.422,20.036 -117.222,93.219 -12.801,73.172 39.988,135.184 108.675,139.809 h 63.657 c 0,0 9.324,-2.309 8.144,-11.949 -1.164,-9.614 -6.98,-10.383 -11.246,-11.547"
         style="fill:#1e6085;fill-opacity:1;fill-rule:nonzero;stroke:none"
         id="path16" /><path
         d="m 432.441,189.109 -19.738,-13.328 -38.219,60.305 c 0,0 105.805,23.113 216.68,81.633 l 0.254,-1.25 c 0,0 -100.758,-61.047 -172.645,-88.68 l 13.668,-38.68"
         style="fill:#5bb859;fill-opacity:1;fill-rule:nonzero;stroke:none"
         id="path18" /><path
         d="m 220.676,480.375 c -52.625,0 -95.434,-42.496 -95.434,-94.723 V 200.523 c 0,-52.234 42.809,-94.726 95.434,-94.726 h 305.515 c 52.618,0 95.43,42.492 95.43,94.726 v 185.129 c 0,52.227 -42.812,94.723 -95.43,94.723 z M 129.543,200.523 v 185.129 c 0,49.856 40.875,90.418 91.133,90.418 h 305.515 c 50.25,0 91.129,-40.562 91.129,-90.418 V 200.523 c 0,-49.863 -40.879,-90.418 -91.129,-90.418 H 220.676 c -50.258,0 -91.133,40.555 -91.133,90.418"
         style="fill:#1e6085;fill-opacity:1;fill-rule:nonzero;stroke:none"
         id="path20" /></g></g></svg>
